<mxfile host="app.diagrams.net" agent="Mozilla/5.0 (Windows NT 10.0; Win64; x64) AppleWebKit/537.36 (KHTML, like Gecko) Chrome/129.0.0.0 Safari/537.36" version="24.7.17">
  <diagram name="Page-1" id="NN9Ntpjx-jl_X6_2pM8p">
    <mxGraphModel dx="716" dy="1080" grid="1" gridSize="10" guides="1" tooltips="1" connect="1" arrows="1" fold="1" page="1" pageScale="1" pageWidth="850" pageHeight="1100" math="0" shadow="0">
      <root>
        <mxCell id="0" />
        <mxCell id="1" parent="0" />
        <mxCell id="JpYg0RpFn67qtgdYz812-1" value="person" style="text;html=1;align=left;verticalAlign=middle;whiteSpace=wrap;rounded=0;fontStyle=1" parent="1" vertex="1">
          <mxGeometry x="120" y="110" width="60" height="30" as="geometry" />
        </mxCell>
        <mxCell id="JpYg0RpFn67qtgdYz812-2" value="person_id" style="rounded=0;whiteSpace=wrap;html=1;fontStyle=4" parent="1" vertex="1">
          <mxGeometry x="120" y="140" width="80" height="20" as="geometry" />
        </mxCell>
        <mxCell id="JpYg0RpFn67qtgdYz812-3" value="fname" style="rounded=0;whiteSpace=wrap;html=1;" parent="1" vertex="1">
          <mxGeometry x="200" y="140" width="80" height="20" as="geometry" />
        </mxCell>
        <mxCell id="JpYg0RpFn67qtgdYz812-4" value="lname" style="rounded=0;whiteSpace=wrap;html=1;" parent="1" vertex="1">
          <mxGeometry x="280" y="140" width="80" height="20" as="geometry" />
        </mxCell>
        <mxCell id="JpYg0RpFn67qtgdYz812-5" value="shoe" style="text;html=1;align=left;verticalAlign=middle;whiteSpace=wrap;rounded=0;fontStyle=1" parent="1" vertex="1">
          <mxGeometry x="120" y="230" width="60" height="30" as="geometry" />
        </mxCell>
        <mxCell id="JpYg0RpFn67qtgdYz812-6" value="shoe_id" style="rounded=0;whiteSpace=wrap;html=1;fontStyle=4" parent="1" vertex="1">
          <mxGeometry x="120" y="260" width="80" height="20" as="geometry" />
        </mxCell>
        <mxCell id="JpYg0RpFn67qtgdYz812-7" value="brand" style="rounded=0;whiteSpace=wrap;html=1;" parent="1" vertex="1">
          <mxGeometry x="200" y="260" width="80" height="20" as="geometry" />
        </mxCell>
        <mxCell id="JpYg0RpFn67qtgdYz812-8" value="model" style="rounded=0;whiteSpace=wrap;html=1;" parent="1" vertex="1">
          <mxGeometry x="280" y="260" width="80" height="20" as="geometry" />
        </mxCell>
        <mxCell id="JpYg0RpFn67qtgdYz812-9" value="version" style="rounded=0;whiteSpace=wrap;html=1;" parent="1" vertex="1">
          <mxGeometry x="360" y="260" width="80" height="20" as="geometry" />
        </mxCell>
        <mxCell id="JpYg0RpFn67qtgdYz812-10" value="&lt;b&gt;run&lt;/b&gt;" style="text;html=1;align=left;verticalAlign=middle;whiteSpace=wrap;rounded=0;" parent="1" vertex="1">
          <mxGeometry x="120" y="350" width="60" height="30" as="geometry" />
        </mxCell>
        <mxCell id="JpYg0RpFn67qtgdYz812-11" value="run_id" style="rounded=0;whiteSpace=wrap;html=1;fontStyle=4" parent="1" vertex="1">
          <mxGeometry x="120" y="380" width="80" height="20" as="geometry" />
        </mxCell>
        <mxCell id="JpYg0RpFn67qtgdYz812-13" value="start_date" style="rounded=0;whiteSpace=wrap;html=1;" parent="1" vertex="1">
          <mxGeometry x="200" y="380" width="80" height="20" as="geometry" />
        </mxCell>
        <mxCell id="YwOJinUkW7khNQ9SXKsT-1" value="&lt;b&gt;route&lt;/b&gt;" style="text;html=1;align=left;verticalAlign=middle;whiteSpace=wrap;rounded=0;" parent="1" vertex="1">
          <mxGeometry x="120" y="470" width="60" height="30" as="geometry" />
        </mxCell>
        <mxCell id="YwOJinUkW7khNQ9SXKsT-2" value="route_id" style="rounded=0;whiteSpace=wrap;html=1;fontStyle=4" parent="1" vertex="1">
          <mxGeometry x="120" y="500" width="80" height="20" as="geometry" />
        </mxCell>
        <mxCell id="YwOJinUkW7khNQ9SXKsT-4" value="name" style="rounded=0;whiteSpace=wrap;html=1;" parent="1" vertex="1">
          <mxGeometry x="200" y="500" width="80" height="20" as="geometry" />
        </mxCell>
        <mxCell id="YwOJinUkW7khNQ9SXKsT-7" value="&lt;b&gt;location&lt;/b&gt;" style="text;html=1;align=left;verticalAlign=middle;whiteSpace=wrap;rounded=0;" parent="1" vertex="1">
          <mxGeometry x="120" y="590" width="60" height="30" as="geometry" />
        </mxCell>
        <mxCell id="YwOJinUkW7khNQ9SXKsT-8" value="location_id" style="rounded=0;whiteSpace=wrap;html=1;fontStyle=4" parent="1" vertex="1">
          <mxGeometry x="120" y="620" width="80" height="20" as="geometry" />
        </mxCell>
        <mxCell id="YwOJinUkW7khNQ9SXKsT-22" value="goal" style="text;html=1;align=left;verticalAlign=middle;whiteSpace=wrap;rounded=0;fontStyle=1" parent="1" vertex="1">
          <mxGeometry x="120" y="710" width="60" height="30" as="geometry" />
        </mxCell>
        <mxCell id="YwOJinUkW7khNQ9SXKsT-23" value="goal_id" style="rounded=0;whiteSpace=wrap;html=1;fontStyle=4" parent="1" vertex="1">
          <mxGeometry x="120" y="740" width="80" height="20" as="geometry" />
        </mxCell>
        <mxCell id="YwOJinUkW7khNQ9SXKsT-24" value="start_date" style="rounded=0;whiteSpace=wrap;html=1;" parent="1" vertex="1">
          <mxGeometry x="200" y="740" width="80" height="20" as="geometry" />
        </mxCell>
        <mxCell id="YwOJinUkW7khNQ9SXKsT-25" value="target_date" style="rounded=0;whiteSpace=wrap;html=1;" parent="1" vertex="1">
          <mxGeometry x="280" y="740" width="80" height="20" as="geometry" />
        </mxCell>
        <mxCell id="YwOJinUkW7khNQ9SXKsT-30" value="duration_goal" style="text;html=1;align=left;verticalAlign=middle;whiteSpace=wrap;rounded=0;fontStyle=1" parent="1" vertex="1">
          <mxGeometry x="120" y="830" width="60" height="30" as="geometry" />
        </mxCell>
        <mxCell id="O5MvObBQWpqz5zzde_0Z-15" style="edgeStyle=orthogonalEdgeStyle;rounded=0;orthogonalLoop=1;jettySize=auto;html=1;entryX=0.5;entryY=1;entryDx=0;entryDy=0;" edge="1" parent="1" source="YwOJinUkW7khNQ9SXKsT-31" target="YwOJinUkW7khNQ9SXKsT-23">
          <mxGeometry relative="1" as="geometry">
            <Array as="points">
              <mxPoint x="160" y="890" />
              <mxPoint x="290" y="890" />
              <mxPoint x="290" y="790" />
              <mxPoint x="160" y="790" />
            </Array>
          </mxGeometry>
        </mxCell>
        <mxCell id="YwOJinUkW7khNQ9SXKsT-31" value="goal_id" style="rounded=0;whiteSpace=wrap;html=1;fontStyle=5" parent="1" vertex="1">
          <mxGeometry x="120" y="860" width="80" height="20" as="geometry" />
        </mxCell>
        <mxCell id="YwOJinUkW7khNQ9SXKsT-47" value="distance_goal" style="text;html=1;align=left;verticalAlign=middle;whiteSpace=wrap;rounded=0;fontStyle=1" parent="1" vertex="1">
          <mxGeometry x="120" y="950" width="60" height="30" as="geometry" />
        </mxCell>
        <mxCell id="O5MvObBQWpqz5zzde_0Z-16" style="edgeStyle=orthogonalEdgeStyle;rounded=0;orthogonalLoop=1;jettySize=auto;html=1;entryX=0.75;entryY=1;entryDx=0;entryDy=0;" edge="1" parent="1" source="YwOJinUkW7khNQ9SXKsT-48" target="YwOJinUkW7khNQ9SXKsT-23">
          <mxGeometry relative="1" as="geometry">
            <Array as="points">
              <mxPoint x="160" y="1010" />
              <mxPoint x="300" y="1010" />
              <mxPoint x="300" y="780" />
              <mxPoint x="180" y="780" />
            </Array>
          </mxGeometry>
        </mxCell>
        <mxCell id="YwOJinUkW7khNQ9SXKsT-48" value="goal_id" style="rounded=0;whiteSpace=wrap;html=1;fontStyle=5" parent="1" vertex="1">
          <mxGeometry x="120" y="980" width="80" height="20" as="geometry" />
        </mxCell>
        <mxCell id="YwOJinUkW7khNQ9SXKsT-60" value="person_run_shoe" style="text;html=1;align=left;verticalAlign=middle;whiteSpace=wrap;rounded=0;fontStyle=1" parent="1" vertex="1">
          <mxGeometry x="120" y="1070" width="60" height="30" as="geometry" />
        </mxCell>
        <mxCell id="O5MvObBQWpqz5zzde_0Z-23" style="edgeStyle=orthogonalEdgeStyle;rounded=0;orthogonalLoop=1;jettySize=auto;html=1;entryX=0.75;entryY=1;entryDx=0;entryDy=0;" edge="1" parent="1" source="YwOJinUkW7khNQ9SXKsT-61" target="JpYg0RpFn67qtgdYz812-2">
          <mxGeometry relative="1" as="geometry">
            <Array as="points">
              <mxPoint x="160" y="1150" />
              <mxPoint x="680" y="1150" />
              <mxPoint x="680" y="180" />
              <mxPoint x="180" y="180" />
            </Array>
          </mxGeometry>
        </mxCell>
        <mxCell id="YwOJinUkW7khNQ9SXKsT-61" value="person_id" style="rounded=0;whiteSpace=wrap;html=1;fontStyle=5" parent="1" vertex="1">
          <mxGeometry x="120" y="1100" width="80" height="20" as="geometry" />
        </mxCell>
        <mxCell id="O5MvObBQWpqz5zzde_0Z-24" style="edgeStyle=orthogonalEdgeStyle;rounded=0;orthogonalLoop=1;jettySize=auto;html=1;entryX=0.5;entryY=1;entryDx=0;entryDy=0;" edge="1" parent="1" source="YwOJinUkW7khNQ9SXKsT-62" target="JpYg0RpFn67qtgdYz812-11">
          <mxGeometry relative="1" as="geometry">
            <Array as="points">
              <mxPoint x="240" y="1140" />
              <mxPoint x="670" y="1140" />
              <mxPoint x="670" y="420" />
              <mxPoint x="160" y="420" />
            </Array>
          </mxGeometry>
        </mxCell>
        <mxCell id="YwOJinUkW7khNQ9SXKsT-62" value="run_id" style="rounded=0;whiteSpace=wrap;html=1;fontStyle=5" parent="1" vertex="1">
          <mxGeometry x="200" y="1100" width="80" height="20" as="geometry" />
        </mxCell>
        <mxCell id="YwOJinUkW7khNQ9SXKsT-63" value="&lt;span style=&quot;font-weight: normal;&quot;&gt;weather&lt;/span&gt;" style="rounded=0;whiteSpace=wrap;html=1;fontStyle=1" parent="1" vertex="1">
          <mxGeometry x="280" y="380" width="80" height="20" as="geometry" />
        </mxCell>
        <mxCell id="YwOJinUkW7khNQ9SXKsT-65" value="distance" style="rounded=0;whiteSpace=wrap;html=1;fontStyle=0" parent="1" vertex="1">
          <mxGeometry x="200" y="980" width="80" height="20" as="geometry" />
        </mxCell>
        <mxCell id="YwOJinUkW7khNQ9SXKsT-68" value="&lt;span style=&quot;font-weight: normal;&quot;&gt;social&lt;/span&gt;" style="rounded=0;whiteSpace=wrap;html=1;fontStyle=1" parent="1" vertex="1">
          <mxGeometry x="360" y="380" width="80" height="20" as="geometry" />
        </mxCell>
        <mxCell id="YwOJinUkW7khNQ9SXKsT-80" value="duration" style="rounded=0;whiteSpace=wrap;html=1;" parent="1" vertex="1">
          <mxGeometry x="360" y="1100" width="80" height="20" as="geometry" />
        </mxCell>
        <mxCell id="O5MvObBQWpqz5zzde_0Z-25" style="edgeStyle=orthogonalEdgeStyle;rounded=0;orthogonalLoop=1;jettySize=auto;html=1;" edge="1" parent="1" source="YwOJinUkW7khNQ9SXKsT-85" target="JpYg0RpFn67qtgdYz812-6">
          <mxGeometry relative="1" as="geometry">
            <Array as="points">
              <mxPoint x="320" y="1130" />
              <mxPoint x="660" y="1130" />
              <mxPoint x="660" y="300" />
              <mxPoint x="160" y="300" />
            </Array>
          </mxGeometry>
        </mxCell>
        <mxCell id="YwOJinUkW7khNQ9SXKsT-85" value="shoe_id" style="rounded=0;whiteSpace=wrap;html=1;fontStyle=1" parent="1" vertex="1">
          <mxGeometry x="280" y="1100" width="80" height="20" as="geometry" />
        </mxCell>
        <mxCell id="YwOJinUkW7khNQ9SXKsT-90" value="duration" style="rounded=0;whiteSpace=wrap;html=1;fontStyle=0" parent="1" vertex="1">
          <mxGeometry x="200" y="860" width="80" height="20" as="geometry" />
        </mxCell>
        <mxCell id="O5MvObBQWpqz5zzde_0Z-1" value="distance" style="rounded=0;whiteSpace=wrap;html=1;" vertex="1" parent="1">
          <mxGeometry x="280" y="500" width="80" height="20" as="geometry" />
        </mxCell>
        <mxCell id="O5MvObBQWpqz5zzde_0Z-2" value="elevation_gain" style="rounded=0;whiteSpace=wrap;html=1;" vertex="1" parent="1">
          <mxGeometry x="360" y="500" width="80" height="20" as="geometry" />
        </mxCell>
        <mxCell id="O5MvObBQWpqz5zzde_0Z-3" value="name" style="rounded=0;whiteSpace=wrap;html=1;" vertex="1" parent="1">
          <mxGeometry x="200" y="620" width="80" height="20" as="geometry" />
        </mxCell>
        <mxCell id="O5MvObBQWpqz5zzde_0Z-4" value="latitude" style="rounded=0;whiteSpace=wrap;html=1;" vertex="1" parent="1">
          <mxGeometry x="280" y="620" width="80" height="20" as="geometry" />
        </mxCell>
        <mxCell id="O5MvObBQWpqz5zzde_0Z-5" value="longitude" style="rounded=0;whiteSpace=wrap;html=1;" vertex="1" parent="1">
          <mxGeometry x="360" y="620" width="80" height="20" as="geometry" />
        </mxCell>
        <mxCell id="O5MvObBQWpqz5zzde_0Z-6" value="city" style="rounded=0;whiteSpace=wrap;html=1;" vertex="1" parent="1">
          <mxGeometry x="440" y="620" width="80" height="20" as="geometry" />
        </mxCell>
        <mxCell id="O5MvObBQWpqz5zzde_0Z-7" value="country" style="rounded=0;whiteSpace=wrap;html=1;" vertex="1" parent="1">
          <mxGeometry x="520" y="620" width="80" height="20" as="geometry" />
        </mxCell>
        <mxCell id="O5MvObBQWpqz5zzde_0Z-10" style="edgeStyle=orthogonalEdgeStyle;rounded=0;orthogonalLoop=1;jettySize=auto;html=1;entryX=0.25;entryY=1;entryDx=0;entryDy=0;" edge="1" parent="1" source="O5MvObBQWpqz5zzde_0Z-9" target="JpYg0RpFn67qtgdYz812-2">
          <mxGeometry relative="1" as="geometry">
            <Array as="points">
              <mxPoint x="480" y="290" />
              <mxPoint x="530" y="290" />
              <mxPoint x="530" y="200" />
              <mxPoint x="140" y="200" />
            </Array>
          </mxGeometry>
        </mxCell>
        <mxCell id="O5MvObBQWpqz5zzde_0Z-9" value="person_id" style="rounded=0;whiteSpace=wrap;html=1;fontStyle=1" vertex="1" parent="1">
          <mxGeometry x="440" y="260" width="80" height="20" as="geometry" />
        </mxCell>
        <mxCell id="O5MvObBQWpqz5zzde_0Z-11" value="creation_date" style="rounded=0;whiteSpace=wrap;html=1;" vertex="1" parent="1">
          <mxGeometry x="360" y="740" width="80" height="20" as="geometry" />
        </mxCell>
        <mxCell id="O5MvObBQWpqz5zzde_0Z-12" value="achievement_date" style="rounded=0;whiteSpace=wrap;html=1;" vertex="1" parent="1">
          <mxGeometry x="440" y="740" width="120" height="20" as="geometry" />
        </mxCell>
        <mxCell id="O5MvObBQWpqz5zzde_0Z-14" style="edgeStyle=orthogonalEdgeStyle;rounded=0;orthogonalLoop=1;jettySize=auto;html=1;entryX=0.5;entryY=1;entryDx=0;entryDy=0;" edge="1" parent="1" source="O5MvObBQWpqz5zzde_0Z-13" target="JpYg0RpFn67qtgdYz812-2">
          <mxGeometry relative="1" as="geometry">
            <Array as="points">
              <mxPoint x="600" y="770" />
              <mxPoint x="650" y="770" />
              <mxPoint x="650" y="190" />
              <mxPoint x="160" y="190" />
            </Array>
          </mxGeometry>
        </mxCell>
        <mxCell id="O5MvObBQWpqz5zzde_0Z-13" value="person_id" style="rounded=0;whiteSpace=wrap;html=1;fontStyle=1" vertex="1" parent="1">
          <mxGeometry x="560" y="740" width="80" height="20" as="geometry" />
        </mxCell>
        <mxCell id="O5MvObBQWpqz5zzde_0Z-19" style="edgeStyle=orthogonalEdgeStyle;rounded=0;orthogonalLoop=1;jettySize=auto;html=1;entryX=0.75;entryY=1;entryDx=0;entryDy=0;" edge="1" parent="1" source="O5MvObBQWpqz5zzde_0Z-17" target="YwOJinUkW7khNQ9SXKsT-8">
          <mxGeometry relative="1" as="geometry">
            <Array as="points">
              <mxPoint x="480" y="540" />
              <mxPoint x="610" y="540" />
              <mxPoint x="610" y="660" />
              <mxPoint x="180" y="660" />
            </Array>
          </mxGeometry>
        </mxCell>
        <mxCell id="O5MvObBQWpqz5zzde_0Z-17" value="start_location" style="rounded=0;whiteSpace=wrap;html=1;fontStyle=1" vertex="1" parent="1">
          <mxGeometry x="440" y="500" width="80" height="20" as="geometry" />
        </mxCell>
        <mxCell id="O5MvObBQWpqz5zzde_0Z-20" style="edgeStyle=orthogonalEdgeStyle;rounded=0;orthogonalLoop=1;jettySize=auto;html=1;entryX=0.5;entryY=1;entryDx=0;entryDy=0;" edge="1" parent="1" source="O5MvObBQWpqz5zzde_0Z-18" target="YwOJinUkW7khNQ9SXKsT-8">
          <mxGeometry relative="1" as="geometry">
            <Array as="points">
              <mxPoint x="560" y="530" />
              <mxPoint x="620" y="530" />
              <mxPoint x="620" y="670" />
              <mxPoint x="160" y="670" />
            </Array>
          </mxGeometry>
        </mxCell>
        <mxCell id="O5MvObBQWpqz5zzde_0Z-18" value="end_location" style="rounded=0;whiteSpace=wrap;html=1;fontStyle=1" vertex="1" parent="1">
          <mxGeometry x="520" y="500" width="80" height="20" as="geometry" />
        </mxCell>
        <mxCell id="O5MvObBQWpqz5zzde_0Z-22" style="edgeStyle=orthogonalEdgeStyle;rounded=0;orthogonalLoop=1;jettySize=auto;html=1;entryX=0.5;entryY=1;entryDx=0;entryDy=0;" edge="1" parent="1" source="O5MvObBQWpqz5zzde_0Z-21" target="YwOJinUkW7khNQ9SXKsT-2">
          <mxGeometry relative="1" as="geometry">
            <Array as="points">
              <mxPoint x="480" y="410" />
              <mxPoint x="630" y="410" />
              <mxPoint x="630" y="550" />
              <mxPoint x="160" y="550" />
            </Array>
          </mxGeometry>
        </mxCell>
        <mxCell id="O5MvObBQWpqz5zzde_0Z-21" value="route_id" style="rounded=0;whiteSpace=wrap;html=1;fontStyle=1" vertex="1" parent="1">
          <mxGeometry x="440" y="380" width="80" height="20" as="geometry" />
        </mxCell>
      </root>
    </mxGraphModel>
  </diagram>
</mxfile>
